<svg width="34" height="34" viewBox="0 0 34 34" fill="none" xmlns="http://www.w3.org/2000/svg">
<circle cx="17.165" cy="17" r="16.835" fill="#FAFAFA"/>
<path fill-rule="evenodd" clip-rule="evenodd" d="M22.7153 11.4496C23.1058 11.8402 23.1058 12.4733 22.7153 12.8638L13.0291 22.55C12.6386 22.9405 12.0054 22.9405 11.6149 22.55C11.2244 22.1594 11.2244 21.5263 11.6149 21.1358L21.301 11.4496C21.6916 11.0591 22.3247 11.0591 22.7153 11.4496Z" fill="black"/>
<path fill-rule="evenodd" clip-rule="evenodd" d="M22.7152 22.5502C22.3246 22.9407 21.6915 22.9407 21.3009 22.5502L11.6148 12.8641C11.2243 12.4736 11.2243 11.8404 11.6148 11.4499C12.0054 11.0594 12.6385 11.0594 13.029 11.4499L22.7152 21.136C23.1057 21.5265 23.1057 22.1597 22.7152 22.5502Z" fill="black"/>
</svg>
