<svg width="196" height="51" viewBox="0 0 196 51" fill="none" xmlns="http://www.w3.org/2000/svg">
<path fill-rule="evenodd" clip-rule="evenodd" d="M20.1186 50.9689C30.834 50.9493 39.5069 42.2504 39.4938 31.5349C39.4743 20.8195 30.7753 12.1466 20.0599 12.1597C9.33788 12.1793 0.665026 20.8782 0.684603 31.6002C0.717233 42.3091 9.40967 50.9754 20.1186 50.9754" fill="white"/>
<path fill-rule="evenodd" clip-rule="evenodd" d="M32.694 23.5931C31.6956 22.0269 30.41 20.6565 28.909 19.5536C28.4066 19.1816 27.878 18.8423 27.3298 18.5356C25.1045 17.3022 22.5986 16.6561 20.0535 16.6626C19.5314 16.6626 19.0159 16.6887 18.4938 16.7475C17.665 16.8258 16.8493 16.9759 16.0466 17.1978C15.8312 17.2565 15.6224 17.3218 15.4071 17.3935C7.57604 19.9778 3.32771 28.4157 5.91195 36.2467C7.39984 40.7496 10.9434 44.28 15.4527 45.7549C15.6616 45.8201 15.8769 45.8919 16.0923 45.9507C16.895 46.166 17.7107 46.3161 18.5395 46.4009C19.055 46.4532 19.5771 46.4793 20.0992 46.4793C20.8692 46.4793 21.6458 46.4205 22.4028 46.2965C24.1387 46.0224 25.8093 45.4416 27.3363 44.5802C27.891 44.28 28.4261 43.9407 28.9352 43.5753C30.4296 42.4659 31.7086 41.0889 32.7006 39.5097C35.7612 34.6479 35.7612 28.4679 32.7006 23.6062M27.3167 19.5405C27.8714 19.8734 28.4 20.2453 28.9025 20.6499C29.281 20.9567 29.6399 21.2829 29.9858 21.6288C30.3056 21.9355 30.5992 22.2618 30.8864 22.6012C30.8472 22.5881 30.8015 22.5751 30.7559 22.562C30.2012 21.9029 29.5877 21.3025 28.909 20.7674C28.6872 20.5977 28.4588 20.4346 28.2434 20.2845C27.9563 20.0887 27.6561 19.906 27.3428 19.7363C26.6968 19.397 26.0116 19.1294 25.3068 18.9402C25.0588 18.6661 24.7651 18.4246 24.4454 18.2289C25.4438 18.5551 26.3966 18.9989 27.2972 19.5405M22.331 19.8342C23.1532 19.3709 24.0799 19.1164 25.0262 19.0968C25.8223 19.2991 26.5924 19.5993 27.3102 19.9974C27.5778 20.1474 27.8453 20.3041 28.1064 20.4803C28.3674 20.6565 28.635 20.8588 28.896 21.0676C29.6856 21.7267 30.3969 22.4707 31.0169 23.2864C31.5781 24.3436 31.7413 25.5704 31.4672 26.7386C30.6253 26.9735 29.777 27.1888 28.9156 27.4042L27.5713 27.7305C27.4929 27.6391 27.4081 27.5478 27.3167 27.4629C26.0899 26.2165 24.6085 25.2572 22.9705 24.6438C22.8922 23.7889 22.7617 22.9405 22.579 22.0987C22.5137 21.792 22.4354 21.4983 22.3506 21.1981C22.2396 20.8392 22.1091 20.4933 21.959 20.154C22.0765 20.0365 22.207 19.9256 22.344 19.8407M18.4807 19.2143C19.6228 19.286 20.7322 19.6189 21.7176 20.1866C21.9916 20.8131 22.2005 21.4657 22.344 22.1313V22.1574C22.5268 22.9797 22.6573 23.8085 22.7356 24.6503L22.3506 24.8526C20.9345 25.6487 19.6358 26.6407 18.4938 27.8023L18.3567 27.9524C17.5932 27.7305 16.8297 27.5543 16.0466 27.3977L15.5702 27.3455L15.4071 27.3194C14.5065 27.1693 13.6386 27.0649 12.738 26.9865C12.1898 25.6814 11.9157 24.2718 11.9288 22.8557C12.5031 22.0595 13.1883 21.3547 13.9583 20.7478C14.4151 20.3954 14.8915 20.0757 15.4005 19.7951C15.6094 19.6841 15.8182 19.5732 16.0401 19.4688C16.262 19.3643 16.4904 19.2599 16.7383 19.162C17.3191 19.1425 17.9065 19.162 18.4873 19.2143M20.1709 33.5124C19.688 34.3281 19.1398 35.1308 18.5525 35.927L18.5134 35.9792C17.9326 36.7623 17.3126 37.5258 16.6666 38.2893H16.0727C15.8769 38.2893 15.6485 38.2893 15.4332 38.2632C13.9975 38.1653 12.5814 37.826 11.2566 37.2648C10.8585 36.5665 10.5127 35.8421 10.2321 35.0916C10.1538 34.8828 10.0754 34.674 10.0037 34.4586C9.70347 33.5515 9.48159 32.6118 9.33802 31.6656C9.586 31.0456 9.88619 30.4452 10.2386 29.871C10.8716 28.8203 11.7134 27.9002 12.7054 27.1758C13.6255 27.2541 14.5391 27.365 15.4332 27.5151H15.5572L16.0727 27.6065C16.8036 27.7501 17.5214 27.9197 18.2328 28.122C18.3241 28.4027 18.422 28.6898 18.5199 28.9769C19.0354 30.4713 19.5901 31.9658 20.1905 33.4667M10.1211 21.6614L10.2125 21.5766C11.6873 20.1213 13.4624 19.012 15.4071 18.3202C15.6159 18.2484 15.8312 18.1766 16.0466 18.1114C16.262 18.0461 16.5426 17.9743 16.7905 17.9091C16.523 18.2289 16.3859 18.64 16.412 19.0511L16.0466 19.2143C15.8312 19.3121 15.6224 19.4231 15.4136 19.534C14.8589 19.8342 14.3303 20.1801 13.8278 20.5716C13.0382 21.1916 12.3399 21.916 11.7526 22.7317C11.224 22.8296 10.7085 22.9797 10.2125 23.182C9.48159 23.4561 8.82248 23.8933 8.29389 24.4676C8.29389 24.3566 8.26126 24.2392 8.25473 24.1217V23.9716C8.79638 23.1363 9.41633 22.3662 10.1146 21.6614M7.07355 26.21C7.34764 25.5443 7.67393 24.9048 8.0459 24.2914C8.0459 24.4284 8.08506 24.5655 8.11116 24.7025L8.05895 24.7743C7.63477 25.3942 7.30196 26.0729 7.07355 26.7908C6.74073 27.7696 6.59716 28.8073 6.66242 29.8449C6.42749 30.0994 6.21866 30.38 6.04247 30.6867C6.14035 29.1466 6.48622 27.6261 7.07355 26.1969M9.26624 40.4885L9.17488 40.4428C8.31999 39.3922 7.6152 38.2241 7.09313 36.9711C6.38181 35.2678 6.01636 33.4341 6.01636 31.5873V31.1957C6.01636 31.0717 6.13383 30.9608 6.19909 30.8564C6.34918 30.5823 6.53191 30.3213 6.74073 30.0863C6.85167 30.2103 6.96261 30.3213 7.0866 30.4322C7.67393 30.9412 8.35262 31.3328 9.09004 31.5873C9.23361 32.5857 9.46201 33.5711 9.78178 34.5239C9.9123 34.922 10.0624 35.307 10.2321 35.6986C10.4931 36.312 10.7933 36.9124 11.1326 37.4932C10.6889 38.5569 10.4735 39.6989 10.4996 40.8474L10.2386 40.7952C9.90577 40.743 9.57948 40.6386 9.27276 40.4885M15.4462 44.8347C13.495 44.1561 11.7134 43.0532 10.2386 41.6044L10.1472 41.5131C9.92535 41.2912 9.69694 41.0628 9.51422 40.8344C9.74915 40.9258 9.99061 40.9845 10.2386 41.0236C10.3365 41.0236 10.4409 41.0498 10.5453 41.0563C11.0935 42.2114 13.5537 43.9015 15.1852 44.1952C15.2374 44.4171 15.3288 44.6324 15.4527 44.8217V44.8282L15.4462 44.8347ZM26.0768 44.267C24.9087 44.8217 23.6688 45.2067 22.3897 45.4221C21.6262 45.5461 20.8561 45.6113 20.0861 45.6178C18.7287 45.6178 17.3779 45.4221 16.0792 45.0436L15.8704 44.9783C15.6746 44.7825 15.5311 44.5476 15.4527 44.28V44.2278C15.6746 44.2278 15.903 44.1887 16.0923 44.1626C16.9798 44.0125 17.8216 43.6536 18.5395 43.1119C18.7026 42.9879 18.8658 42.8574 19.0224 42.7204C19.8773 43.014 20.7778 43.1445 21.6849 43.1054C21.9199 43.1054 22.1678 43.1054 22.4093 43.0793C23.3099 43.0206 24.2039 42.8705 25.0718 42.629C25.4112 43.1119 25.855 43.51 26.3705 43.8037C26.2987 43.9733 26.2073 44.143 26.0964 44.2931M27.3689 43.6014C27.0753 43.7841 26.7751 43.9472 26.4684 44.1038C26.5206 44.0125 26.5597 43.9146 26.5989 43.8102C26.8599 43.7515 27.1144 43.6731 27.3689 43.5753L27.4799 43.5361L27.3689 43.6014ZM27.3689 40.1883C26.8469 41.0041 26.1812 41.7089 25.4047 42.2831C24.4323 42.6029 23.4273 42.7987 22.4093 42.8639C22.1678 42.8835 21.9264 42.89 21.6849 42.89C20.7974 42.9292 19.9034 42.7922 19.0681 42.4854C18.8853 42.2636 18.7157 42.0352 18.5525 41.8002C17.8021 40.7757 17.2343 39.6271 16.8819 38.4133C17.4627 37.7281 18.0174 37.069 18.5395 36.3511L18.7614 36.0509C19.3291 35.2809 19.8642 34.4913 20.3471 33.6951C21.0193 33.7473 21.6915 33.7734 22.3963 33.78C23.597 33.78 24.7912 33.7277 25.9855 33.6103C26.488 34.2107 26.9382 34.8567 27.3298 35.5354L27.4407 35.7312C27.8453 36.449 28.1782 37.1995 28.4522 37.9761C28.1782 38.7461 27.7997 39.4835 27.3363 40.1557M28.9352 37.9761H28.7067C28.4327 37.1603 28.0803 36.3707 27.6626 35.6137C27.5582 35.431 27.4538 35.2613 27.3494 35.0916C27.0166 34.55 26.6511 34.0279 26.2465 33.5385C26.7294 32.5074 27.1014 31.4241 27.3624 30.3147C27.5451 29.5251 27.6626 28.7289 27.7148 27.9197L28.9352 27.6195C29.8031 27.4042 30.6645 27.1693 31.5129 26.9409C32.0088 27.3324 32.42 27.8284 32.7136 28.3961C33.1182 29.1009 33.4184 29.8514 33.6142 30.641C33.7056 31.8483 33.5946 33.0621 33.2879 34.2302C33.0203 35.2287 32.5962 36.1815 32.0284 37.0559C31.0887 37.6041 30.0315 37.9239 28.9482 37.9761M31.8261 39.2878C32.1198 38.6221 32.2503 37.8912 32.1916 37.1603C32.3808 36.8732 32.557 36.573 32.7136 36.2598C33.0334 35.6333 33.2879 34.9742 33.4706 34.289C33.7512 33.2057 33.8687 32.0898 33.823 30.9804C33.9405 30.8564 34.0318 30.7128 34.1036 30.5562C34.1036 30.889 34.1428 31.2283 34.1428 31.5677C34.1428 33.7082 33.6664 35.8225 32.7267 37.7477C32.4591 38.2828 32.1589 38.8049 31.8261 39.3073" fill="#813488"/>
<path d="M63.5613 46.9491H27.5452L36.4921 15.4619H48.6693L49.5373 21.929L52.4609 15.4619H64.7882L63.5613 46.9491ZM46.7899 36.9842L46.9008 38.2567L47.3838 37.069L46.7899 36.9842ZM54.634 29.6687L56.3894 30.0472L56.5722 25.3877L54.634 29.6687ZM40.5903 29.6948L42.7047 29.884L42.0065 24.696L40.5838 29.6948H40.5903Z" fill="white"/>
<path d="M86.859 46.9491H72.3977L72.0453 43.1903H71.1447L69.6177 46.9491H54.5625L68.8868 15.4619H82.5258L86.8525 46.9491H86.859ZM73.7681 23.6584L75.7977 23.9651L75.7063 23.2864H73.9378L73.7681 23.6584Z" fill="white"/>
<path d="M96.7319 46.9493H82.6296L84.0457 30.4063L83.7259 28.827H79.6211L81.7747 15.4556H107.597L105.45 28.827H99.5968L96.7319 46.9493Z" fill="white"/>
<path d="M124.213 46.9493H96.2691L99.2123 28.3963L100.028 27.3913L101.92 15.4556H129.212L124.213 46.9493Z" fill="white"/>
<path d="M140.449 47.1385C136.488 47.1385 133.395 45.9443 131.261 43.595C129.225 41.3501 128.194 38.4004 128.194 34.8177C128.194 34.0346 128.233 33.1993 128.305 32.3379C128.376 31.4961 128.481 30.6151 128.624 29.7145C129.068 26.8236 129.766 24.4286 130.758 22.4056C131.894 20.0824 133.506 18.2812 135.542 17.0609C137.532 15.8667 139.953 15.2598 142.746 15.2598C145.083 15.2598 147.027 15.4751 148.678 15.9189C150.251 16.3431 151.465 16.7672 152.391 17.2306L154.969 18.5162L152.992 30.6738L148.717 29.3882C148.032 29.1794 147.216 29.0032 146.303 28.8466C145.18 28.6573 144.091 28.579 143.288 28.6573C143.249 28.7422 143.203 28.8531 143.157 28.9967C142.994 29.4535 142.746 30.341 142.472 31.9986C142.381 32.612 142.296 33.2124 142.231 33.7606C143.399 33.7606 144.345 33.7279 145.05 33.6627C145.892 33.5909 146.753 33.5126 147.634 33.4277L152.659 32.9513L150.767 45.0242L148.678 45.8464C147.275 46.3946 145.787 46.76 144.254 46.9232C142.929 47.0668 141.656 47.1385 140.462 47.1385H140.449Z" fill="white"/>
<path d="M158.917 47.1386C155.282 47.1386 152.385 46.2184 150.303 44.4042C148.071 42.453 146.942 39.549 146.942 35.7705C146.942 35.0527 146.995 34.2696 147.099 33.4408C147.184 32.7491 147.288 32.0247 147.399 31.2938L149.938 15.4556H176.524L173.509 34.4132C173.124 36.8082 172.569 38.7463 171.806 40.3452C170.938 42.1593 169.789 43.6081 168.406 44.6457C167.062 45.6507 165.495 46.3359 163.746 46.6948C162.304 46.9885 160.679 47.1386 158.917 47.1386Z" fill="white"/>
<path d="M180.759 46.9491H166.65L171.649 15.4619H184.734C186.476 15.4619 188.107 15.7621 189.576 16.3429C191.396 17.0738 192.845 18.3268 193.889 20.0757C194.862 21.7072 195.332 23.7497 195.332 26.3144C195.332 26.8495 195.279 27.4499 195.181 28.1482C195.103 28.6637 195.031 29.127 194.966 29.5382C194.692 31.3589 194.196 32.9838 193.478 34.3347C192.734 35.7443 191.814 36.9189 190.731 37.8325C189.648 38.7527 188.447 39.4314 187.161 39.8555C185.967 40.2471 184.727 40.4494 183.487 40.4494C182.919 40.4494 182.352 40.4298 181.79 40.3841L180.746 46.9426L180.759 46.9491Z" fill="white"/>
<path d="M32.7266 43.0341L39.4482 19.3779H45.2432L47.475 35.9993L54.9928 19.3779H60.7225L59.7958 43.0341H53.8443L54.3533 30.2957L49.1979 43.0341H43.4029L42.287 30.5502L38.8479 43.0341H32.7331H32.7266Z" fill="#813488"/>
<path d="M60.6511 43.0341L71.4123 19.3779H79.1193L82.3692 43.0341H75.9673L75.6149 39.2753H68.5148L66.9877 43.0341H60.6511ZM70.8119 33.7348H75.0472L74.375 24.6247L70.8119 33.7348Z" fill="#813488"/>
<path d="M87.211 43.0341L90.0759 24.9184H84.2157L85.1097 19.3779H103.004L102.11 24.9184H96.2494L93.3845 43.0341H87.211Z" fill="#813488"/>
<path d="M101.509 43.0341L105.268 19.3779H111.441L109.98 28.488H116.982L118.45 19.3779H124.624L120.865 43.0341H114.691L116.127 34.0219H109.125L107.689 43.0341H101.516H101.509Z" fill="#813488"/>
<path d="M140.449 43.2227C137.623 43.2227 135.529 42.4722 134.158 40.9648C132.788 39.4573 132.102 37.4082 132.102 34.8174C132.102 34.1387 132.135 33.4209 132.2 32.6704C132.266 31.9199 132.357 31.1368 132.487 30.3276C132.866 27.8413 133.46 25.7791 134.269 24.1346C135.072 22.4901 136.168 21.2502 137.552 20.4279C138.929 19.5991 140.658 19.188 142.74 19.188C144.717 19.188 146.355 19.3642 147.66 19.7166C148.965 20.069 149.957 20.4148 150.636 20.7542L149.84 25.6551C148.991 25.4006 148.026 25.1852 146.942 25.0025C145.859 24.8198 144.841 24.735 143.882 24.735C143.203 24.735 142.59 24.7937 142.035 24.9112C141.48 25.0286 140.997 25.2962 140.573 25.7204C140.149 26.1445 139.777 26.8037 139.457 27.6977C139.137 28.5917 138.85 29.8186 138.596 31.3913C138.491 32.1157 138.4 32.7683 138.328 33.3491C138.25 33.9364 138.217 34.4454 138.217 34.8957C138.217 35.8746 138.498 36.5859 139.059 37.0297C139.62 37.4734 140.638 37.6953 142.1 37.6953C143.438 37.6953 144.528 37.6561 145.383 37.5844C146.231 37.5126 147.105 37.4277 147.993 37.3429L147.229 42.2177C146.146 42.6419 145.011 42.916 143.823 43.0465C142.635 43.177 141.513 43.2358 140.449 43.2358V43.2227Z" fill="#813488"/>
<path d="M158.917 43.2228C156.242 43.2228 154.232 42.6354 152.881 41.4543C151.536 40.2731 150.858 38.3806 150.858 35.7702C150.858 35.2156 150.897 34.6086 150.988 33.9365C151.073 33.2708 151.171 32.5856 151.275 31.8808L153.279 19.3643H159.452L157.318 32.8336C157.253 33.2774 157.188 33.7016 157.129 34.1062C157.064 34.5108 157.031 34.8827 157.031 35.2221C157.031 36.0052 157.233 36.6121 157.638 37.0363C158.043 37.4604 158.76 37.6758 159.805 37.6758C160.359 37.6758 160.842 37.604 161.253 37.4539C161.664 37.3038 162.023 37.0493 162.317 36.6904C162.617 36.3315 162.872 35.8355 163.081 35.209C163.296 34.5825 163.472 33.7929 163.622 32.8336L165.756 19.3643H171.936L169.646 33.7864C169.326 35.7833 168.869 37.4017 168.275 38.6416C167.681 39.8815 166.944 40.8343 166.063 41.4934C165.182 42.1525 164.144 42.6028 162.957 42.8443C161.769 43.0857 160.418 43.2097 158.911 43.2097L158.917 43.2228Z" fill="#813488"/>
<path d="M171.238 43.0341L174.997 19.3779H184.74C185.993 19.3779 187.122 19.5802 188.133 19.9848C189.138 20.3894 189.941 21.0877 190.535 22.0862C191.129 23.0846 191.429 24.4942 191.429 26.3214C191.429 26.6608 191.39 27.0784 191.318 27.5809C191.24 28.0769 191.174 28.5337 191.109 28.9318C190.9 30.3544 190.535 31.5486 190.026 32.5145C189.517 33.4803 188.91 34.2634 188.212 34.8572C187.513 35.4511 186.756 35.8818 185.954 36.1494C185.145 36.4169 184.329 36.5474 183.5 36.5474C182.521 36.5474 181.568 36.4757 180.635 36.3256C179.702 36.1755 179.01 36.0189 178.567 35.8492L177.418 43.0472H171.238V43.0341ZM179.324 31.0005H182.606C183.069 31.0005 183.474 30.87 183.8 30.6154C184.127 30.3609 184.388 30.0216 184.583 29.5974C184.773 29.1732 184.903 28.7164 184.968 28.227C185.008 27.9529 185.047 27.6853 185.079 27.4308C185.112 27.1763 185.125 27.0066 185.125 26.9218C185.125 26.1779 184.988 25.6558 184.727 25.3621C184.459 25.0619 184.061 24.9184 183.533 24.9184H180.283L179.33 31.0005H179.324Z" fill="#813488"/>
<path d="M73.6101 10.7829C73.2251 10.7829 72.9119 10.4631 72.9119 10.0781L72.9576 1.10505C72.9445 0.720025 73.2512 0.400259 73.6362 0.387207C73.6428 0.387207 73.6493 0.387207 73.6558 0.387207L82.6289 0.432888C83.0139 0.432888 83.3337 0.739603 83.3402 1.12463C83.3402 1.12463 83.3402 1.13115 83.3402 1.13768L83.2945 10.1107C83.2945 10.4957 82.9747 10.809 82.5897 10.809L73.6036 10.7894L73.6101 10.7829Z" fill="#ECEDED"/>
<path d="M79.758 8.46589L77.5979 9.07932C77.4152 9.14458 77.2194 9.04669 77.1542 8.87049C77.1542 8.86397 77.1542 8.85091 77.1477 8.84439L75.5619 3.193C75.5097 3.01028 75.6206 2.82103 75.7968 2.76882L78.0417 2.12929C78.5572 1.97919 79.1119 2.14234 79.4709 2.54042C80.0647 3.14732 80.0451 4.11967 79.4382 4.71352C79.4121 4.73963 79.386 4.76573 79.3599 4.78531C80.3975 4.89625 81.1545 5.82292 81.0501 6.86706C80.9718 7.611 80.4628 8.23748 79.7515 8.47241" fill="#4C205B"/>
<path d="M80.0978 4.51147C80.4632 3.8132 80.3719 2.97137 79.8759 2.36446C79.393 1.80977 78.6425 1.56831 77.9312 1.73798L75.6341 2.39057C75.2686 2.49498 75.0533 2.87348 75.1577 3.23893L76.8022 9.04041C76.9066 9.40586 77.2851 9.62121 77.6506 9.5168C77.6506 9.5168 77.6506 9.5168 77.6571 9.5168L79.9607 8.86421C80.796 8.59012 81.4095 7.87881 81.5596 7.0174C81.7097 5.95368 81.1158 4.91607 80.1173 4.51799M79.765 8.47266L77.6049 9.08609C77.4222 9.15135 77.2264 9.05346 77.1611 8.87726C77.1611 8.87074 77.1611 8.85769 77.1546 8.85116L75.5688 3.19977C75.5166 3.01705 75.6276 2.8278 75.8038 2.77559L78.0487 2.13606C78.5642 1.98596 79.1124 2.14911 79.4713 2.54719C80.0651 3.14757 80.0521 4.11992 79.4517 4.71377C79.4256 4.73987 79.393 4.76598 79.3669 4.79208C80.4045 4.89649 81.1615 5.82969 81.0571 6.8673C80.9788 7.61125 80.4697 8.24426 79.7584 8.47266" fill="#803486"/>
<path d="M80.4438 6.97207C80.4438 6.01277 79.6803 5.2362 78.7275 5.21662C79.354 4.68803 79.4388 3.75483 78.9102 3.12182C78.8972 3.10877 78.8841 3.08919 78.8711 3.07614C78.5252 2.67154 77.977 2.50839 77.468 2.65849L75.5951 3.18708L77.1939 8.84499C77.2396 9.02772 77.4289 9.13866 77.6181 9.09298C77.6246 9.09298 77.6377 9.09298 77.6442 9.08645L79.1778 8.63617C79.9348 8.42734 80.4569 7.74212 80.4634 6.96555" fill="#803486"/>
<path d="M107.813 9.81098C105.94 9.81098 104.863 8.66895 104.87 6.42406L104.889 2.59991C104.889 2.04521 105.196 1.69934 105.659 1.69934C106.09 1.69934 106.436 2.05174 106.429 2.48244C106.429 2.5216 106.429 2.56075 106.423 2.59991V6.28049C106.423 7.79449 106.906 8.27087 107.839 8.2774C108.772 8.28393 109.268 7.80754 109.275 6.29354L109.294 2.61296C109.229 2.18878 109.516 1.7907 109.94 1.72545C109.979 1.72545 110.019 1.71892 110.064 1.71892C110.515 1.71892 110.834 2.05174 110.828 2.61949V6.41753C110.828 8.66243 109.725 9.78487 107.852 9.77835M90.6695 5.43213C91.2633 5.09278 91.6353 4.45978 91.6484 3.77456C91.6484 2.45634 90.7478 1.52967 88.8618 1.50357H86.7279C86.3298 1.47746 85.9904 1.77113 85.9643 2.1692C85.9643 2.19531 85.9643 2.22794 85.9643 2.25404L85.9252 8.95609C85.9056 9.35417 86.2123 9.69351 86.6104 9.71309C86.6365 9.71309 86.6626 9.71309 86.6887 9.71309L88.8096 9.74572C91.2372 9.78487 92.0399 8.74074 92.0464 7.46819C92.0595 6.58068 91.5113 5.778 90.676 5.47128M95.7792 5.021L94.0825 2.16268C93.9585 1.89512 93.6975 1.71892 93.4038 1.71239C93.0057 1.67976 92.6599 1.97343 92.6272 2.3715C92.6272 2.37803 92.6272 2.39108 92.6272 2.39761C92.6272 2.61949 92.6925 2.84137 92.823 3.02409L95.0092 6.56763V8.92999C94.957 9.37374 95.2702 9.77182 95.714 9.82403C95.7335 9.82403 95.7466 9.82403 95.7662 9.82403C96.1969 9.82403 96.5558 9.47816 96.5558 9.04093C96.5558 9.00177 96.5558 8.96261 96.5493 8.92346V6.5611L98.7681 3.03714C98.8986 2.85442 98.9704 2.63254 98.9769 2.41066C98.9899 2.01258 98.6702 1.67324 98.2721 1.66019C98.2395 1.66019 98.2068 1.66019 98.1807 1.66019C97.8871 1.66019 97.6195 1.83638 97.4955 2.11047L95.7857 5.00795L95.7792 5.021ZM112.505 4.6164C112.74 4.6164 112.949 4.4663 113.04 4.25095C113.262 3.71583 113.392 3.14808 113.432 2.56728C113.432 2.05826 113.203 1.7385 112.649 1.73197C112.094 1.72545 111.846 2.11047 111.846 2.78263V3.38954C111.846 4.14654 112.055 4.57724 112.485 4.57724M98.2395 7.63134C98.3243 8.89083 99.4076 9.8436 100.667 9.76529C102.436 9.76529 103.33 8.72116 103.362 6.82866L103.382 2.59338C103.447 2.1692 103.153 1.77113 102.729 1.70587C102.697 1.70587 102.657 1.69934 102.625 1.69934C102.148 1.69934 101.855 2.02563 101.855 2.59991L101.835 6.87434C101.835 7.84017 101.496 8.29698 100.739 8.3035C99.4533 8.3035 100.014 6.95918 99.0943 6.88087C98.6832 6.83519 98.3112 7.12885 98.2656 7.53998C98.2656 7.57913 98.2656 7.61829 98.2656 7.65092M89.3251 4.73386C88.8227 4.82522 88.5029 5.02753 88.4964 5.50391C88.4833 5.94767 88.8292 6.31312 89.2664 6.32617C89.2795 6.32617 89.286 6.32617 89.299 6.32617C90.1605 6.42406 90.4541 6.72425 90.4541 7.38336C90.4541 8.04247 89.9451 8.31656 88.9923 8.31003H87.4261L87.4522 2.9262H89.1424C89.6384 2.89357 90.0626 3.27207 90.0952 3.76804C90.0952 3.80719 90.0952 3.85287 90.0952 3.89203C90.1082 4.33579 89.7624 4.71429 89.3121 4.72734M115.305 7.79449C115.141 7.55303 114.88 7.38988 114.593 7.3442C114.208 7.33768 113.888 7.64439 113.875 8.02942C113.875 8.05552 113.875 8.0751 113.875 8.1012C113.888 8.35571 113.993 8.59717 114.156 8.78642C114.796 9.55647 115.748 9.98717 116.747 9.95454C118.182 9.95454 119.39 9.15839 119.396 7.70965C119.396 4.89048 115.663 5.14499 115.67 3.89203C115.67 3.40259 116.003 3.1285 116.571 3.1285C116.936 3.11545 117.288 3.22639 117.582 3.44174C117.856 3.6571 118.065 4.07475 118.522 4.07475C118.894 4.10738 119.22 3.82677 119.246 3.46132C119.246 3.46132 119.246 3.44827 119.246 3.44174C119.246 2.88705 118.698 2.36498 118.222 2.09742C117.719 1.80376 117.145 1.65366 116.564 1.66019C115.35 1.66019 114.156 2.32582 114.143 3.90508C114.143 6.45016 117.882 6.02598 117.869 7.61829C117.869 8.19909 117.419 8.4797 116.747 8.47318C116.192 8.46012 115.677 8.21214 115.318 7.79449" fill="#ECEDED"/>
<path d="M105.658 1.8622C106.089 1.8622 106.434 2.2144 106.428 2.64487C106.428 2.684 106.428 2.72313 106.421 2.76227V2.63182C106.486 2.20788 106.2 1.81003 105.776 1.7448C105.736 1.7448 105.697 1.73828 105.658 1.73828C105.208 1.73828 104.889 2.06439 104.889 2.63835V2.78183C104.889 2.22745 105.202 1.88177 105.658 1.88177" fill="white"/>
<path d="M106.404 6.43019C106.404 7.94419 106.886 8.42057 107.82 8.4271C108.753 8.43363 109.249 7.95724 109.255 6.44324V6.3062C109.255 7.81367 108.753 8.29006 107.813 8.28353C106.873 8.28353 106.391 7.80062 106.397 6.28662V6.43019H106.404Z" fill="white"/>
<path d="M115.664 3.95086C115.664 3.95086 115.664 4.00307 115.664 4.02917C115.664 5.26908 119.331 5.03415 119.39 7.76849V7.70323C119.39 4.92974 115.801 5.13204 115.67 3.94434" fill="white"/>
<path d="M93.3516 1.80304C93.6453 1.80304 93.9128 1.98577 94.0368 2.25333L95.7335 5.11165L97.4629 2.27291C97.5869 2.00535 97.8544 1.82915 98.1481 1.82262C98.5331 1.80304 98.8659 2.07713 98.9181 2.46215C98.9181 2.43605 98.9181 2.40342 98.9181 2.37732C98.8986 1.97924 98.5592 1.67253 98.1611 1.68558C97.8675 1.68558 97.5999 1.86178 97.4759 2.13586L95.7466 4.97461L94.0499 2.11628C93.9259 1.84872 93.6648 1.67253 93.3712 1.666C92.9731 1.63337 92.6207 1.93356 92.5946 2.33816C92.5946 2.33816 92.5946 2.35122 92.5946 2.35774V2.44258C92.6468 2.06408 92.9861 1.78999 93.3712 1.8161" fill="white"/>
<path d="M114.586 7.48675C114.874 7.53243 115.135 7.68905 115.298 7.93704C115.657 8.35469 116.179 8.60267 116.733 8.61572C117.399 8.61572 117.849 8.33511 117.856 7.76084C117.856 7.73473 117.856 7.70863 117.856 7.68253C117.817 8.21112 117.386 8.47868 116.74 8.47216C116.185 8.4591 115.67 8.21112 115.311 7.79347C115.148 7.55201 114.887 7.38886 114.6 7.34318C114.214 7.33013 113.888 7.63032 113.875 8.02187C113.875 8.04798 113.875 8.07408 113.875 8.09366C113.875 8.11323 113.875 8.13281 113.875 8.15891C113.882 7.78042 114.201 7.48023 114.58 7.48675C114.58 7.48675 114.593 7.48675 114.6 7.48675" fill="white"/>
<path d="M116.557 1.80306C117.138 1.79653 117.706 1.9401 118.215 2.22724C118.724 2.4948 119.096 2.97119 119.22 3.53241C119.22 3.50631 119.22 3.48673 119.22 3.46062C119.22 2.90593 118.672 2.38386 118.195 2.1163C117.699 1.82264 117.138 1.66602 116.564 1.66602C115.35 1.66602 114.156 2.33165 114.143 3.91091V3.98269C114.182 2.46217 115.357 1.82264 116.557 1.80958" fill="white"/>
<path d="M98.2068 7.6304V7.71524C98.2199 7.30411 98.5657 6.98434 98.9769 6.99739C99.003 6.99739 99.0291 6.99739 99.0552 7.00392C99.9557 7.08223 99.4076 8.44613 100.7 8.42656C101.457 8.42656 101.79 7.97627 101.796 6.99739V6.86035C101.796 7.82618 101.457 8.28299 100.7 8.28951C99.4141 8.28951 99.9753 6.94519 99.0552 6.86688C98.644 6.8212 98.2721 7.11486 98.2264 7.52599C98.2264 7.56514 98.2264 7.6043 98.2264 7.63693" fill="white"/>
<path d="M110.044 1.73193C109.613 1.73193 109.268 2.07761 109.268 2.50808C109.268 2.54721 109.268 2.58634 109.274 2.632V2.76896C109.209 2.34502 109.496 1.94717 109.92 1.88194C109.959 1.88194 109.998 1.87542 110.044 1.87542C110.494 1.87542 110.813 2.20805 110.807 2.77549V2.63852C110.807 2.08413 110.5 1.73846 110.044 1.73846" fill="white"/>
<path d="M112.622 1.73193C112.055 1.73193 111.82 2.11022 111.82 2.78201V2.9255C111.82 2.25371 112.055 1.89499 112.622 1.87542C113.007 1.82324 113.359 2.09718 113.411 2.48199C113.411 2.52764 113.418 2.57982 113.411 2.632V2.56678C113.411 2.05804 113.183 1.73846 112.629 1.73193" fill="white"/>
<path d="M102.572 1.69842C102.096 1.69842 101.803 2.02453 101.803 2.59848V2.74197C101.803 2.18758 102.096 1.84191 102.572 1.84191C103.003 1.84191 103.348 2.20063 103.342 2.63109C103.342 2.67023 103.342 2.70284 103.335 2.73545V2.58544C103.401 2.16149 103.107 1.76364 102.683 1.69842C102.651 1.69842 102.611 1.69189 102.579 1.69189" fill="white"/>
<path d="M86.6883 1.64713H88.8222C90.656 1.64713 91.5762 2.5477 91.6023 3.8333C91.6023 3.81372 91.6023 3.79414 91.6023 3.77456C91.6023 2.45634 90.7017 1.52967 88.8157 1.50357H86.6818C86.2837 1.47746 85.9443 1.77113 85.9182 2.1692C85.9182 2.19531 85.9182 2.22794 85.9182 2.25404V2.39761C85.8987 1.99953 86.1989 1.66671 86.5969 1.64061C86.623 1.64061 86.6557 1.64061 86.6818 1.64061" fill="white"/>
<path d="M89.3047 4.71982C88.8025 4.81113 88.4829 5.01331 88.4764 5.48944C88.4764 5.51552 88.4764 5.54161 88.4764 5.5677C88.509 5.11767 88.8156 4.95461 89.2917 4.8633C89.7352 4.85026 90.0874 4.47849 90.0744 4.02846V3.9502C90.0548 4.36762 89.7156 4.70025 89.2982 4.71982" fill="white"/>
<path d="M88.979 8.46579C89.9318 8.46579 90.4343 8.13949 90.4408 7.53912V7.44775C90.4082 8.0155 89.9122 8.34832 88.9855 8.32222H87.4193V8.46579H88.979Z" fill="white"/>
<path d="M90.6297 5.47705L90.5383 5.54231C90.5383 5.54231 90.5122 5.58146 90.5253 5.60104C90.5253 5.60104 90.5318 5.61409 90.5383 5.61409L90.6166 5.65325C91.4258 5.94039 91.9805 6.70391 92.0001 7.56532V7.47396C92.0001 7.23903 91.9675 7.01063 91.8957 6.78875C91.6934 6.18184 91.2235 5.70546 90.6232 5.47705" fill="white"/>
<path d="M67.2548 6.55379L51.0315 5.91426L67.2548 5.28125V6.55379Z" fill="white"/>
<path d="M124.859 5.28125L141.082 5.91426L124.859 6.55379V5.28125Z" fill="white"/>
</svg>
