<svg width="81" height="51" viewBox="0 0 81 51" fill="none" xmlns="http://www.w3.org/2000/svg">
<g opacity="0.8">
<g style="mix-blend-mode:multiply">
<path d="M27.6082 27.952L22.4559 31.5947L19.476 30.4835L24.6247 26.8408L27.6082 27.952Z" fill="#6D3597"/>
</g>
<g style="mix-blend-mode:multiply">
<path d="M20.1048 25.156L14.9542 28.797L9.4071 26.7299L14.5594 23.0854L20.1048 25.156Z" fill="#6D3597"/>
</g>
<g style="mix-blend-mode:multiply">
<path d="M10.0376 21.4008L4.88531 25.0435L1.9054 23.9305L7.05593 20.2896L10.0376 21.4008Z" fill="#6D3597"/>
</g>
<g style="mix-blend-mode:multiply">
<path d="M7.05593 20.2895L1.9054 23.9304L2.73255 19.8839L7.88309 16.2412L7.05593 20.2895Z" fill="#A561D7"/>
</g>
<g style="mix-blend-mode:multiply">
<path d="M20.5512 46.753L15.3989 50.3975L10.879 48.7129L16.0296 45.0684L20.5512 46.753Z" fill="#6D3597"/>
</g>
<g style="mix-blend-mode:multiply">
<path d="M16.0296 45.0688L10.879 48.7133L14.9541 28.7972L20.1046 25.1562L16.0296 45.0688Z" fill="#A561D7"/>
</g>
<g style="mix-blend-mode:multiply">
<path d="M5.96446 41.3134L0.812134 44.9561L4.8854 25.0436L10.0377 21.4009L5.96446 41.3134Z" fill="#A561D7"/>
</g>
<path d="M28.4354 23.9072L27.6083 27.9518L24.6248 26.8406L20.5515 46.7532L16.0299 45.0685L20.1049 25.1559L14.5595 23.0854L10.4845 42.9997L5.9646 41.3132L10.0379 21.4007L7.05616 20.2895L7.88332 16.2412L28.4354 23.9072Z" fill="#9149C8"/>
<g style="mix-blend-mode:multiply">
<path d="M10.4843 43L5.33381 46.6427L0.812134 44.9562L5.96446 41.3135L10.4843 43Z" fill="#6D3597"/>
</g>
</g>
<g opacity="0.8">
<path d="M49.8119 22.9917L48.0056 19.3911C48.7988 18.8336 49.9537 17.9384 51.1746 17.0952L52.9809 20.6958C51.76 21.537 50.6051 22.4322 49.8099 22.9917" fill="#4F1B83"/>
<path d="M52.9828 20.6956L51.1765 17.095L75.3117 0.842285L77.12 4.4409L52.9828 20.6956Z" fill="#4F1B83"/>
<path d="M77.1201 4.4409L75.3118 0.842285L78.6707 3.62766L80.477 7.23027L77.1201 4.4409Z" fill="#3B1365"/>
<path d="M44.1132 26.4301L42.3049 22.8295L49.3723 4.88037L51.1766 8.48098L44.1132 26.4301Z" fill="#4F1B83"/>
<path d="M48.8946 4.44489L47.0883 0.842285L55.0348 3.266L56.8411 6.86861L48.8946 4.44489Z" fill="#3B1365"/>
<path d="M47.6819 7.37813L45.8756 3.77552L47.0885 0.842285L48.8948 4.44489L47.6819 7.37813Z" fill="#552087"/>
<path d="M80.4772 7.23029L47.4702 29.2176L44.1134 26.4302L51.1768 8.48112L47.682 7.37616L48.8949 4.44491L56.8414 6.86863L51.4765 19.6226C50.939 20.8555 50.3036 22.0683 49.814 22.9915C50.6093 22.432 51.7642 21.5368 52.9851 20.6956L77.1203 4.44092L80.4792 7.22829L80.4772 7.23029Z" fill="#9149C8"/>
</g>
</svg>
